<?xml version="1.0" encoding="utf-8"?>
<!-- Generator: Adobe Illustrator 25.2.1, SVG Export Plug-In . SVG Version: 6.00 Build 0)  -->
<svg version="1.1" id="Layer_1" xmlns="http://www.w3.org/2000/svg" xmlns:xlink="http://www.w3.org/1999/xlink" x="0px" y="0px"
	 viewBox="0 0 152.4 108" style="enable-background:new 0 0 152.4 108;" xml:space="preserve">
<style type="text/css">
	.st0{fill:#00579F;}
	.st1{fill:#FAA61A;}
</style>
<g id="g4158" transform="matrix(4.4299631,0,0,4.4299631,-81.165783,-105.04783)">
	<polygon id="polygon9" class="st0" points="33,40.6 30.6,40.6 32.1,31.2 34.6,31.2 	"/>
	<path id="path11" class="st0" d="M41.9,31.4c-0.5-0.2-1.2-0.4-2.2-0.4c-2.4,0-4.1,1.3-4.1,3.1c0,1.4,1.2,2.1,2.1,2.6
		c0.9,0.5,1.3,0.8,1.3,1.2c0,0.6-0.8,0.9-1.5,0.9c-1,0-1.5-0.2-2.3-0.5l-0.3-0.2l-0.3,2.1c0.6,0.3,1.6,0.5,2.7,0.5
		c2.6,0,4.2-1.3,4.3-3.2c0-1.1-0.6-1.9-2.1-2.6c-0.9-0.4-1.4-0.7-1.4-1.2c0-0.4,0.4-0.8,1.4-0.8c0.8,0,1.4,0.2,1.8,0.4l0.2,0.1
		L41.9,31.4C41.9,31.4,41.9,31.4,41.9,31.4z"/>
	<path id="path13" class="st0" d="M45.2,37.3c0.2-0.5,1-2.6,1-2.6c0,0,0.2-0.6,0.3-0.9l0.2,0.8c0,0,0.5,2.3,0.6,2.7
		C46.8,37.3,45.6,37.3,45.2,37.3L45.2,37.3z M48.2,31.2h-1.9c-0.6,0-1,0.2-1.3,0.8l-3.6,8.7h2.6c0,0,0.4-1.2,0.5-1.4
		c0.3,0,2.8,0,3.1,0c0.1,0.3,0.3,1.4,0.3,1.4h2.3L48.2,31.2L48.2,31.2L48.2,31.2z"/>
	<path id="path15" class="st0" d="M28.6,31.2l-2.4,6.4l-0.3-1.3c-0.4-1.5-1.8-3.1-3.4-4l2.2,8.3h2.6l3.8-9.4L28.6,31.2L28.6,31.2
		L28.6,31.2z"/>
	<path id="path17" class="st1" d="M23.9,31.2H20l0,0.2c3.1,0.8,5.1,2.7,5.9,4.9L25,32C24.9,31.4,24.5,31.2,23.9,31.2L23.9,31.2z"/>
</g>
</svg>
