<?xml version="1.0" encoding="UTF-8"?>
<svg xmlns="http://www.w3.org/2000/svg" xmlns:xlink="http://www.w3.org/1999/xlink" version="1.1" id="Layer_2_1_" x="0px" y="0px" viewBox="0 0 231.8 231.8" style="enable-background:new 0 0 231.8 231.8;" xml:space="preserve">
<style type="text/css">
	.st0{fill:url(#SVGID_1_);}
	.st1{fill:url(#SVGID_2_);}
</style>
<linearGradient id="SVGID_1_" gradientUnits="userSpaceOnUse" x1="75.0308" y1="-5.0636" x2="238.2125" y2="158.1181" gradientTransform="matrix(1 0 0 -1 0 234.141)">
	<stop offset="0" style="stop-color:#B090F5"></stop>
	<stop offset="1" style="stop-color:#5FBFFF"></stop>
</linearGradient>
<path class="st0" d="M216.6,58.4l-5-8.8c-1.4-2.5-4.5-3.3-7-1.9c-0.4,0.2-0.8,0.5-1.1,0.8L192,60.1c-1.7,1.7-2,4.5-0.6,6.5  c4.2,6.4,7.6,13.3,10,20.6l0,0c15.9,47.2-9.5,98.4-56.7,114.3c-9.3,3.1-19,4.7-28.8,4.7c-14.7,0-29.3-3.6-42.3-10.5l19.4-19.5  c33.3,12.6,70.4-4.2,83-37.5c6.3-16.5,5.4-34.9-2.3-50.8c-1.2-2.6-4.3-3.6-6.9-2.4c-0.5,0.3-1,0.6-1.4,1l-11.6,11.6  c-1.3,1.3-1.8,3.1-1.4,4.8l1,4.2c4.9,20.8-8,41.6-28.8,46.4c-9.5,2.2-19.5,0.8-28-4.1l-5.1-2.9c-2-1.2-4.6-0.8-6.2,0.8L38,194.9  c-2,2-2,5.3,0,7.3c0.2,0.2,0.3,0.3,0.5,0.4l7,5.4c20.2,15.6,45,24,70.5,23.9c64.1-0.1,115.9-52.1,115.9-116.1  C231.8,95.6,226.5,75.9,216.6,58.4z"></path>
<linearGradient id="SVGID_2_" gradientUnits="userSpaceOnUse" x1="-6.4304" y1="78.3255" x2="156.774" y2="241.5199" gradientTransform="matrix(1 0 0 -1 0 234.141)">
	<stop offset="0" style="stop-color:#68D7FA"></stop>
	<stop offset="1" style="stop-color:#4EE498"></stop>
</linearGradient>
<path class="st1" d="M186.4,23.9c-20.2-15.6-45-24-70.5-23.9C51.8,0.1,0,52,0,116.1c0,20.1,5.3,39.9,15.2,57.3l5,8.8  c1.4,2.5,4.6,3.3,7,1.9c0.4-0.2,0.8-0.5,1.1-0.8l11.5-11.5c1.7-1.7,2-4.5,0.6-6.5c-4.2-6.4-7.6-13.3-10-20.6l0,0  C14.6,97.5,39.9,46.4,87.1,30.5c9.3-3.1,19-4.7,28.8-4.7c14.7,0,29.3,3.6,42.3,10.5l-19.5,19.4c-33.3-12.6-70.4,4.1-83,37.4  c-2.8,7.3-4.2,15-4.2,22.8c0,1.1,0.3,5.9,0.4,6.8c0.8,7.4,2.8,14.6,6.1,21.3c1.2,2.6,4.3,3.6,6.9,2.4c0.5-0.3,1-0.6,1.4-1l11.6-11.6  c1.3-1.3,1.8-3.1,1.4-4.8l-1-4.2c-4.9-20.8,8-41.6,28.7-46.4c9.5-2.2,19.5-0.8,28,4.1l5.1,2.9c2,1.2,4.6,0.8,6.2-0.8L193.8,37  c2-2,2-5.3,0-7.3c-0.2-0.2-0.3-0.3-0.5-0.4L186.4,23.9z"></path>
</svg>
