<?xml version="1.0" encoding="utf-8"?>
<!-- Generator: Adobe Illustrator 25.2.1, SVG Export Plug-In . SVG Version: 6.00 Build 0)  -->
<svg version="1.1" id="Layer_1" xmlns="http://www.w3.org/2000/svg" xmlns:xlink="http://www.w3.org/1999/xlink" x="0px" y="0px"
	 viewBox="0 0 404.4 217.1" style="enable-background:new 0 0 404.4 217.1;" xml:space="preserve">
<style type="text/css">
	.st0{fill:#80BD92;}
	.st1{fill:#649B74;}
</style>
<g>
	<path class="st0" d="M372.5,0L0,0.1l0,186.8l372.5-0.1L372.5,0z M310.3,165.7l-248,0.1c-1.5-22.1-18.5-39.9-40.2-42.8l0-59.2
		c21.7-2.8,38.7-20.7,40.2-42.8l248-0.1c1.5,22.1,18.5,39.9,40.2,42.8l0,59.2C328.8,125.8,311.8,143.6,310.3,165.7z"/>
	<path class="st0" d="M177,66c-1.5,1.6-2.3,3.8-2.2,6.5c0,3,1.1,5.4,3.4,7.2c1.2,1,3.2,1.9,5.8,2.7l0-18.9
		C180.8,63.6,178.5,64.4,177,66z"/>
	<path class="st0" d="M195.5,101.9c-1.2-1-3.3-2.1-6.3-3.2l0,21c2.8-0.4,4.8-1,6.1-1.9c2.2-1.7,3.3-4.5,3.4-8.6
		C198.6,106.1,197.6,103.7,195.5,101.9z"/>
	<path class="st0" d="M186.3,28.2c-36,0-65.2,29.2-65.2,65.3c0,36,29.2,65.2,65.3,65.2c36,0,65.2-29.2,65.2-65.3
		C251.5,57.4,222.3,28.2,186.3,28.2z M203.6,127.3c-4,2.5-8.9,4-14.4,4.4v10.8l-5.2,0v-10.7c-7.1-0.8-12.3-2.3-15.8-4.6
		c-6.1-4.1-9.1-11.2-9-21.1h14.5c0.5,4.5,1.2,7.5,2.1,9.1c1.4,2.4,4.1,4,8.2,4.7l0-23l-4.3-1.3c-6.9-2-11.7-4.8-14.5-8.4
		c-2.8-3.6-4.2-7.9-4.2-13c0-3.3,0.5-6.4,1.6-9.1c1.1-2.7,2.6-5.1,4.6-7c2.6-2.6,5.4-4.3,8.5-5.3c1.9-0.6,4.7-1.1,8.3-1.3v-7.2
		l5.2,0v7.3c5.8,0.5,10.4,1.9,13.7,4.3c6,3.8,9.1,10.1,9.4,18.7l-14.1,0c-0.3-3.2-0.8-5.5-1.6-7c-1.3-2.6-3.8-3.9-7.3-4.2v20.5
		c8.5,2.9,14.2,5.5,17.1,7.8c4.8,3.8,7.2,9.1,7.2,15.9C213.5,116.6,210.2,123.2,203.6,127.3z"/>
</g>
<polygon class="st1" points="372.6,30.5 372.6,186.8 31.8,186.8 31.8,217.1 404.4,217.1 404.4,30.5 "/>
</svg>
