<?xml version="1.0" encoding="utf-8"?>
<!-- Generator: Adobe Illustrator 25.2.1, SVG Export Plug-In . SVG Version: 6.00 Build 0)  -->
<svg version="1.1" id="Layer_1" xmlns="http://www.w3.org/2000/svg" xmlns:xlink="http://www.w3.org/1999/xlink" x="0px" y="0px"
	 viewBox="0 0 34 34" style="enable-background:new 0 0 34 34;" xml:space="preserve">
<style type="text/css">
	.st0{fill:#FFFFFF;}
</style>
<path class="st0" d="M29.2,17.2h-3c0-6.1-5-11.1-11.1-11.1C9,6.1,4.1,11,4,17c-0.1,6.2,5.7,11.6,11.9,11.6h0.8
	c5.5,0,12.8-4.3,14-9.5C30.9,18.1,30.2,17.2,29.2,17.2z M10.6,17.5c0,0.8-0.7,1.5-1.5,1.5c-0.8,0-1.5-0.7-1.5-1.5v-2.4
	c0-0.8,0.7-1.5,1.5-1.5c0.8,0,1.5,0.7,1.5,1.5V17.5z M15.8,17.5c0,0.8-0.7,1.5-1.5,1.5s-1.5-0.7-1.5-1.5v-2.4c0-0.8,0.7-1.5,1.5-1.5
	c0.8,0,1.5,0.7,1.5,1.5V17.5z"/>
</svg>
